<svg width="28" height="22" viewBox="0 0 28 22" fill="none" xmlns="http://www.w3.org/2000/svg">
<path d="M0 22V15.7055C0 13.8953 0.330472 12.0131 0.991417 10.0589C1.67239 8.08415 2.59371 6.22253 3.75536 4.47405C4.93705 2.70501 6.25894 1.21365 7.72103 0L12.7682 3.36325C11.5866 5.19402 10.5951 7.10706 9.79399 9.10239C9.01287 11.0771 8.63233 13.2576 8.65236 15.6438V22H0ZM15.2318 22V15.7055C15.2318 13.8953 15.5622 12.0131 16.2232 10.0589C16.9041 8.08415 17.8255 6.22253 18.9871 4.47405C20.1688 2.70501 21.4907 1.21365 22.9528 0L28 3.36325C26.8183 5.19402 25.8269 7.10706 25.0258 9.10239C24.2446 11.0771 23.8641 13.2576 23.8841 15.6438V22H15.2318Z" fill="#356554"/>
</svg>
